<?xml version="1.0" encoding="iso-8859-1"?>
<!-- Generator: Adobe Illustrator 23.0.1, SVG Export Plug-In . SVG Version: 6.00 Build 0)  -->
<svg version="1.1" id="Layer_1" xmlns="http://www.w3.org/2000/svg" xmlns:xlink="http://www.w3.org/1999/xlink" x="0px" y="0px"
	 viewBox="0 0 512 512" style="enable-background:new 0 0 512 512;" xml:space="preserve">
<g>
	<path style="fill:#EF3834;" d="M115.086,48.974c1.534-0.651,3.107-1.203,4.727-1.573c7.008-1.626,14.651-0.559,21.249,3.57
		c6.585,4.126,10.879,10.525,12.499,17.553c1.6,7.011,0.559,14.664-3.567,21.256c-4.126,6.592-10.555,10.872-17.56,12.499
		c-7.028,1.613-14.664,0.552-21.249-3.57c-4.244-2.658-7.421-6.314-9.656-10.41l-4.793,2.208c2.651,4.978,6.578,9.365,11.709,12.578
		c7.795,4.876,16.833,6.132,25.127,4.215c8.327-1.901,15.907-6.988,20.79-14.786c4.879-7.798,6.142-16.839,4.212-25.156
		c-1.897-8.307-6.978-15.884-14.77-20.763c-6.836-4.278-14.611-5.775-22.013-4.8l-9.163,3.18L115.086,48.974z"/>
	<path style="fill:#EF3834;" d="M97.572,120.459c12.588,7.881,27.189,9.907,40.61,6.82c13.421-3.087,25.669-11.296,33.553-23.89
		c7.881-12.595,9.914-27.203,6.823-40.617c-1.897-8.244-5.742-16.036-11.332-22.651L152.906,31l-3.478,1.203
		c0.836,0.46,1.683,0.886,2.506,1.398c11.382,7.124,18.809,18.198,21.583,30.317c2.787,12.129,0.962,25.335-6.169,36.726
		c-7.127,11.385-18.204,18.803-30.336,21.596c-12.109,2.803-25.318,0.965-36.7-6.158c-9.322-5.838-15.92-14.31-19.563-23.831
		l-5.616-0.202c0.007,0.02,0.017,0.04,0.023,0.06l0.221,0.116l-0.178-0.003C79.05,103.52,86.654,113.623,97.572,120.459"/>
	<path style="fill:#EF3834;" d="M180.133,125.865l2.721,8.601V114.2c-10.142,14.634-24.981,24.284-41.242,28.016
		c-17.236,3.97-35.983,1.369-52.171-8.763c-9.646-6.036-17.239-14.089-22.684-23.236l-0.869,6.932l-0.122,0.988l0.099,0.155
		c5.319,7.378,12.076,13.891,20.185,19.087l-1.15,10.337l4.446,6.873l1.603-14.39c1.93,1.041,3.887,1.983,5.871,2.836l-0.526,22.297
		l4.998,7.725l0.658-28.006c1.98,0.684,3.967,1.316,5.973,1.821l3.861,42.409l6.053,9.358l-4.612-50.647
		c2.74,0.483,5.491,0.853,8.248,1.022l10.225,71.053l6.73,10.403l-11.712-81.386c2.288-0.02,4.569-0.152,6.839-0.383l20.505,105.938
		l7.53,11.639l-22.899-118.288c1.365-0.235,2.74-0.426,4.089-0.737c1.273-0.294,2.512-0.701,3.768-1.058l32.207,146.621l4.096,6.334
		v-11.828l-31.351-142.717c2.45-0.889,4.843-1.917,7.193-3.061l24.158,100.262v-22.112l-19.424-80.623
		c2.016-1.167,3.983-2.426,5.894-3.788l13.53,47.959v-19.074l-8.902-31.553c-0.069-0.248-0.208-0.456-0.34-0.665
		C175.886,130.06,178.074,128.051,180.133,125.865"/>
	<path style="fill:#EF3834;" d="M146.491,42.295c8.982,5.62,14.839,14.35,17.041,23.933c2.208,9.573,0.757,19.986-4.869,28.978
		c-5.626,8.988-14.36,14.849-23.937,17.048c-9.58,2.202-19.993,0.754-28.974-4.866c-6.007-3.762-10.572-8.912-13.623-14.757
		l-0.056,0.026l-5.805-0.208c3.398,7.702,9.058,14.505,16.743,19.318c10.188,6.373,22.003,8.016,32.872,5.52
		c10.859-2.502,20.78-9.144,27.163-19.338c6.383-10.198,8.02-22.023,5.524-32.882c-2.506-10.866-9.15-20.776-19.335-27.153
		c-2.139-1.339-4.36-2.42-6.615-3.349l-8.145,2.826C138.617,38.318,142.683,39.908,146.491,42.295"/>
	<path style="fill:#EF3834;" d="M119.317,85.714c2.939,1.838,6.32,2.334,9.467,1.666c0.063-0.013,0.139-0.023,0.208-0.043
		c3.203-0.731,6.132-2.684,8.013-5.686c1.831-2.932,2.324-6.334,1.65-9.487c-0.01-0.069-0.023-0.139-0.036-0.205
		c-0.737-3.203-2.694-6.119-5.689-7.997c-2.935-1.838-6.34-2.344-9.477-1.669c-0.053,0.007-0.106,0.017-0.159,0.026l2.995,4.866
		c1.332,0.03,2.674,0.383,3.904,1.15c1.788,1.124,2.962,2.876,3.392,4.777l0.043,0.159c0.397,1.871,0.086,3.887-1.008,5.633
		c-1.121,1.795-2.863,2.969-4.787,3.402l-0.149,0.04c-1.878,0.38-3.887,0.079-5.626-1.008c-0.727-0.453-1.319-1.028-1.835-1.656
		l-4.787,2.208C116.417,83.38,117.703,84.703,119.317,85.714"/>
	<path style="fill:#EF3834;" d="M92.135,129.146c14.985,9.375,32.373,11.801,48.349,8.122c15.963-3.686,30.551-13.448,39.939-28.442
		c0.893-1.428,1.663-2.892,2.43-4.36V88.562c-1.157,6.013-3.309,11.917-6.813,17.52c-8.631,13.785-22.032,22.77-36.72,26.151
		c-14.704,3.372-30.67,1.157-44.445-7.468c-12.519-7.834-21.014-19.6-25.027-32.687l-0.817-0.023l-1.17,9.372
		C72.882,112.469,81.074,122.22,92.135,129.146"/>
	<path style="fill:#EF3834;" d="M182.854,66.207V50.072l-1.382-0.879l-5.223-3.326c2.605,5.097,4.506,10.555,5.798,16.152
		C182.368,63.407,182.612,64.806,182.854,66.207"/>
	<path style="fill:#EF3834;" d="M138.369,55.277c-5.411-3.385-11.669-4.251-17.424-2.929l-0.003,0.007l-0.003,0.003
		c-1.074,0.248-2.102,0.648-3.13,1.041l2.757,4.486c0.512-0.169,1.008-0.393,1.534-0.512l0.007,0.01
		c4.473-1.022,9.315-0.35,13.517,2.278c4.185,2.618,6.925,6.691,7.954,11.153l-0.003,0.007c1.025,4.463,0.36,9.329-2.264,13.524
		c-2.625,4.192-6.711,6.919-11.173,7.95l-0.159,0.046c-4.433,0.959-9.21,0.274-13.355-2.317c-2.489-1.56-4.39-3.656-5.795-6.01
		l-4.684,2.162c1.825,3.23,4.367,6.112,7.739,8.225c5.329,3.335,11.497,4.215,17.186,2.952c0.083,0,0.149-0.017,0.228-0.027
		c5.762-1.319,10.998-4.849,14.376-10.251c3.382-5.402,4.271-11.653,2.935-17.414h-0.013l0.003-0.003
		C147.274,63.901,143.757,58.648,138.369,55.277"/>
	<path style="fill:#0EA2C8;" d="M227.614,114.633l2.744,12.426c0.231,1.061,1.283,1.729,2.344,1.497
		c1.061-0.235,1.729-1.286,1.497-2.347l-2.744-12.423c-0.235-1.061-1.283-1.732-2.344-1.497
		C228.05,112.52,227.379,113.572,227.614,114.633"/>
	<path style="fill:#0EA2C8;" d="M230.166,177.228l2.74,12.426c0.235,1.061,1.286,1.732,2.347,1.497
		c1.061-0.235,1.729-1.283,1.497-2.344l-2.744-12.426c-0.231-1.061-1.283-1.732-2.344-1.497
		C230.602,175.115,229.931,176.167,230.166,177.228"/>
	<path style="fill:#0EA2C8;" d="M201.551,97.919l26.455,119.901c0.231,1.061,1.283,1.732,2.344,1.497
		c1.061-0.235,1.732-1.283,1.497-2.344L205.392,97.073c-0.235-1.061-1.283-1.732-2.344-1.497
		C201.988,95.81,201.317,96.858,201.551,97.919"/>
	<path style="fill:#0EA2C8;" d="M226.705,161.538c0.235,1.061,1.283,1.732,2.344,1.497c1.061-0.235,1.732-1.283,1.497-2.344
		l-20.598-93.356l-4.688-2.985L226.705,161.538z"/>
	<path style="fill:#0EA2C8;" d="M198.089,82.23c0.235,1.061,1.283,1.732,2.344,1.497c1.064-0.235,1.732-1.286,1.497-2.344
		l-4.916-22.287l-4.691-2.988L198.089,82.23z"/>
	<path style="fill:#0EA2C8;" d="M224.151,98.942c0.235,1.061,1.286,1.732,2.347,1.497c1.061-0.235,1.732-1.283,1.497-2.344
		l-4.945-22.413l-4.691-2.985L224.151,98.942z"/>
	<path style="fill:#0EA2C8;" d="M199.828,188.297c-1.061,0.235-1.732,1.283-1.497,2.344l8.357,37.88
		c0.235,1.064,1.286,1.732,2.347,1.497c1.061-0.235,1.729-1.283,1.494-2.344l-8.354-37.88
		C201.937,188.734,200.886,188.063,199.828,188.297"/>
	<path style="fill:#0EA2C8;" d="M218.869,274.591c1.058-0.235,1.729-1.283,1.497-2.344l-6.373-28.882
		c-0.235-1.061-1.283-1.732-2.344-1.497c-1.064,0.235-1.732,1.286-1.501,2.347l6.377,28.879
		C216.756,274.154,217.807,274.825,218.869,274.591"/>
	<path style="fill:#0EA2C8;" d="M252.319,157.3l-2.744-12.423c-0.235-1.061-1.283-1.732-2.344-1.501
		c-1.061,0.235-1.732,1.286-1.497,2.347l2.74,12.423c0.235,1.061,1.286,1.732,2.347,1.497
		C251.882,159.413,252.553,158.361,252.319,157.3"/>
	<path style="fill:#0EA2C8;" d="M250.008,197.861l-12.35-55.959c-0.231-1.061-1.283-1.732-2.34-1.497h-0.003
		c-1.061,0.235-1.729,1.283-1.497,2.344l12.35,55.959c0.235,1.061,1.279,1.732,2.344,1.497
		C249.571,199.973,250.243,198.922,250.008,197.861"/>
	<path style="fill:#0EA2C8;" d="M237.377,293.055l-6.344-28.753c-0.235-1.061-1.286-1.729-2.347-1.497
		c-1.061,0.235-1.732,1.286-1.494,2.347l6.34,28.75c0.238,1.064,1.286,1.732,2.347,1.497
		C236.94,295.164,237.612,294.116,237.377,293.055"/>
	<path style="fill:#0EA2C8;" d="M237.867,203c-1.061,0.235-1.732,1.283-1.497,2.344l12.347,55.962
		c0.235,1.061,1.286,1.732,2.347,1.497c1.058-0.235,1.729-1.286,1.494-2.347l-12.347-55.959
		C239.98,203.437,238.928,202.766,237.867,203"/>
	<path style="fill:#0EA2C8;" d="M215.66,304.656l-9.299-42.144c-0.231-1.061-1.283-1.729-2.344-1.497
		c-1.061,0.235-1.732,1.286-1.497,2.347l9.296,42.141c0.235,1.064,1.286,1.732,2.347,1.497
		C215.224,306.765,215.895,305.717,215.66,304.656"/>
	<path style="fill:#0EA2C8;" d="M236.151,84.032l-4.688-2.988l10.806,48.99c0.238,1.061,1.286,1.729,2.347,1.497
		c1.061-0.235,1.732-1.286,1.497-2.347L236.151,84.032z"/>
	<path style="fill:#0EA2C8;" d="M195.508,159.58c-0.235-1.061-1.286-1.732-2.347-1.497c-1.061,0.235-1.732,1.286-1.497,2.344
		l3.207,14.525c0.235,1.061,1.283,1.732,2.344,1.497c1.061-0.235,1.732-1.286,1.497-2.347L195.508,159.58z"/>
	<path style="fill:#0EA2C8;" d="M213.313,193.121c1.061-0.235,1.732-1.283,1.497-2.344l-5.792-26.241
		c-0.231-1.061-1.283-1.732-2.344-1.497c-1.061,0.235-1.729,1.283-1.497,2.344l5.788,26.241
		C211.2,192.685,212.252,193.356,213.313,193.121"/>
	<path style="fill:#0EA2C8;" d="M191.296,212.498l7.758,35.173c0.238,1.061,1.289,1.729,2.347,1.497
		c1.061-0.235,1.732-1.286,1.497-2.347l-7.758-35.173c-0.235-1.061-1.286-1.729-2.347-1.494
		C191.732,210.386,191.061,211.437,191.296,212.498"/>
	<path style="fill:#0EA2C8;" d="M226.073,250.958L226.073,250.958c1.061-0.235,1.732-1.283,1.497-2.344l-9.299-42.148
		c-0.235-1.061-1.283-1.729-2.344-1.494c-1.065,0.231-1.732,1.283-1.497,2.344l9.299,42.144
		C223.961,250.522,225.012,251.193,226.073,250.958"/>
	<path style="fill:#0EA2C8;" d="M219.12,320.347c-0.235-1.061-1.283-1.732-2.344-1.497c-1.064,0.235-1.732,1.286-1.497,2.347
		l3.375,15.299l3.22-3.679L219.12,320.347z"/>
	<polygon style="fill:#0EA2C8;" points="249.252,92.379 244.564,89.391 259.965,159.201 259.965,140.937 	"/>
	<path style="fill:#0EA2C8;" d="M253.47,213.553c-0.235-1.061-1.283-1.732-2.347-1.497c-1.061,0.235-1.732,1.283-1.497,2.344
		l6.317,28.624c0.235,1.061,1.283,1.732,2.344,1.497c1.061-0.231,1.736-1.283,1.497-2.344L253.47,213.553z"/>
	<path style="fill:#0EA2C8;" d="M255.779,172.992c-0.235-1.061-1.283-1.732-2.344-1.497c-1.061,0.235-1.732,1.286-1.497,2.347
		l8.026,36.389v-18.264L255.779,172.992z"/>
	<path style="fill:#0EA2C8;" d="M256.193,327.316l-20.885-94.652c-0.231-1.061-1.279-1.732-2.34-1.497
		c-1.064,0.235-1.732,1.283-1.497,2.344l20.882,94.652c0.017,0.069,0.063,0.122,0.083,0.188l3.501,0.433
		C256.199,328.36,256.308,327.841,256.193,327.316"/>
	<path style="fill:#0EA2C8;" d="M253.676,274.651c-1.061,0.235-1.732,1.283-1.497,2.344l6.317,28.624
		c0.165,0.76,0.76,1.306,1.471,1.474v-13.064l-3.944-17.881C255.788,275.088,254.737,274.417,253.676,274.651"/>
	<polygon style="fill:#0EA2C8;" points="259.964,108.167 259.964,96.551 257.333,96.237 	"/>
	<g>
		<path style="fill:#0EA2C8;" d="M188.201,144.736c0.235,1.061,1.283,1.732,2.347,1.497c1.061-0.235,1.732-1.283,1.494-2.344
			l-4.783-21.699v18.264L188.201,144.736z"/>
		<path style="fill:#0EA2C8;" d="M187.835,196.807c0.235,1.061,1.283,1.732,2.344,1.497c1.061-0.235,1.732-1.286,1.497-2.347
			l-4.42-20.033v18.264L187.835,196.807z"/>
		<path style="fill:#0EA2C8;" d="M240.837,308.745c-0.235-1.061-1.283-1.732-2.347-1.497c-1.058,0.235-1.729,1.286-1.494,2.344
			l3.821,17.325l4.142,0.512L240.837,308.745z"/>
		<path style="fill:#0EA2C8;" d="M194.647,276.885c1.061-0.235,1.732-1.283,1.497-2.344l-6.34-28.736
			c-0.264-1.193-1.365-1.94-2.549-1.858v8.575l5.048,22.866C192.535,276.449,193.586,277.12,194.647,276.885"/>
		<path style="fill:#0EA2C8;" d="M201.716,149.694c0.235,1.061,1.283,1.732,2.344,1.497c1.064-0.235,1.732-1.286,1.497-2.344
			l-18.3-82.947v18.264L201.716,149.694z"/>
		<path style="fill:#0EA2C8;" d="M223.827,287.937c-0.235-1.061-1.286-1.732-2.344-1.497c-1.064,0.235-1.735,1.286-1.501,2.344
			l8.139,36.892l0.258-0.294l3.812,0.469L223.827,287.937z"/>
		<path style="fill:#0EA2C8;" d="M199.606,290.232c-0.235-1.061-1.283-1.732-2.344-1.497c-1.064,0.235-1.732,1.283-1.497,2.344
			l9.385,42.541l6.116,9.454L199.606,290.232z"/>
	</g>
	<polygon style="fill:#0EA2C8;" points="187.257,288.544 187.257,305.958 193.088,314.973 	"/>
	<path style="fill:#1AA94B;" d="M344.309,156.846l-2.41-3.246c-0.483,0.417-0.972,0.83-1.445,1.256v5.517
		C341.691,159.131,342.997,157.987,344.309,156.846"/>
	<path style="fill:#1AA94B;" d="M340.454,174.847c0.893-1.13,1.735-2.271,2.661-3.398c2.102-2.549,4.43-4.83,6.856-6.985l-2.41-3.24
		c-2.512,2.208-4.916,4.562-7.107,7.167V174.847z"/>
	<path style="fill:#1AA94B;" d="M340.454,183.792v6.959c3.061-4.433,6.357-8.879,9.977-13.279c1.603-1.947,3.365-3.712,5.2-5.388
		l-2.413-3.246c-2.086,1.881-4.086,3.868-5.904,6.069C344.89,177.851,342.629,180.82,340.454,183.792"/>
	<path style="fill:#1AA94B;" d="M340.454,200.602v7.735c4.806-8.149,10.486-16.571,17.295-24.842
		c1.107-1.345,2.297-2.602,3.537-3.792l-2.41-3.246c-1.491,1.398-2.926,2.869-4.248,4.473
		C349.26,187.455,344.586,194.08,340.454,200.602"/>
	<path style="fill:#1AA94B;" d="M444.142,236.207l1.137-7.398c-1.022-2.218-2.076-4.403-3.154-6.545l-4.721-0.41
		C439.778,226.451,442.089,231.301,444.142,236.207"/>
	<path style="fill:#1AA94B;" d="M340.454,228.346c5.765-12.003,13.745-25.636,24.608-38.829c0.612-0.744,1.283-1.428,1.947-2.112
		l-2.44-3.286c-0.909,0.902-1.798,1.831-2.621,2.833c-8.978,10.902-16.006,22.099-21.494,32.485V228.346z"/>
	<path style="fill:#1AA94B;" d="M426.167,220.875c5.643,10.284,11.398,22.426,14.297,33.546c0.185,0.714,0.36,1.441,0.542,2.159
		l1.455-9.454c-2.942-8.763-7.177-17.771-11.487-25.834L426.167,220.875z"/>
	<path style="fill:#1AA94B;" d="M340.454,253.171c4.8-13.993,14.413-36.363,31.923-57.631c0.119-0.142,0.255-0.264,0.374-0.403
		l-2.446-3.292c-0.347,0.377-0.711,0.73-1.041,1.13c-14.079,17.1-23.173,34.935-28.809,48.749V253.171z"/>
	<path style="fill:#1AA94B;" d="M345.501,269.937c0.02-0.112,0.106-0.608,0.126-0.691c0.301-1.425,7.643-34.796,32.954-66.263
		l-2.492-3.359c-26.452,32.452-34.098,67.307-34.412,68.778c-0.017,0.073-0.152,0.846-0.152,0.846
		c-0.007,0.017-0.01,0.03-0.01,0.046c-1.712,11.018-0.83,20.565,1.372,28.667l3.947-0.909
		C344.734,289.407,343.878,280.379,345.501,269.937"/>
	<path style="fill:#1AA94B;" d="M419.643,220.308l-4.902-0.426c6.225,10.694,13.335,24.578,16.552,36.928
		c1.739,6.668,3.25,13.276,3.722,19.933l2.992-0.691l0.212-1.359l-0.288-0.073l0.291,0.073l0.387-2.542
		c-0.724-5.474-1.987-10.902-3.408-16.36C432.125,243.99,425.636,230.87,419.643,220.308"/>
	<path style="fill:#1AA94B;" d="M354.845,271.502l0.073-0.403c0.77-3.481,7.649-32.155,29.517-60.236l-2.492-3.355
		c-23.041,29.166-30.221,59.331-30.974,62.759c-0.007,0.026-0.01,0.05-0.017,0.076l-0.083,0.473c-0.003,0.013-0.007,0.03-0.01,0.05
		c-1.484,9.659-0.631,17.937,1.329,24.955l3.934-0.906C354.267,288.351,353.453,280.583,354.845,271.502"/>
	<path style="fill:#1AA94B;" d="M408.096,219.305l-4.978-0.433c7.246,11.801,15.689,27.599,19.008,40.329
		c1.792,6.889,3.283,13.368,3.537,19.695l3.993-0.919c-0.354-6.423-1.835-12.922-3.626-19.795
		C422.843,245.942,415.124,231.043,408.096,219.305"/>
	<path style="fill:#1AA94B;" d="M416.217,281.072l4.059-0.935c-0.089-6.053-1.554-12.413-3.415-19.563
		c-1.815-6.962-5.454-15.596-10.823-25.662c-3.547-6.648-7.077-12.472-9.715-16.631l-5.081-0.443
		c8.254,12.621,18.314,30.707,21.712,43.751C414.835,268.818,416.283,275.168,416.217,281.072"/>
	<path style="fill:#1AA94B;" d="M364.194,273.062l0.01-0.076c0.727-3.18,7.167-29.421,26.796-55.169l-1.494-0.129l-1.702-2.291
		c-20.208,26.532-26.839,53.642-27.54,56.729c-0.01,0.026-0.013,0.053-0.016,0.079l-0.03,0.149c-0.003,0.023-0.01,0.046-0.01,0.069
		c-1.256,8.281-0.493,15.339,1.217,21.269l3.937-0.906C363.751,287.316,363.03,280.767,364.194,273.062"/>
	<path style="fill:#1AA94B;" d="M373.515,274.796c0.588-2.446,5.15-20.224,17.147-39.741c4.43,7.725,10.704,19.636,13.124,28.925
		c1.987,7.629,3.454,14.052,2.813,19.308l4.145-0.955c0.337-5.603-1.127-11.973-3.051-19.371
		c-2.873-11.008-10.767-25.289-15.226-32.822c-0.354-0.605-0.998-0.988-1.699-0.995c-0.013,0-0.026-0.003-0.036-0.003
		c-0.684,0-1.322,0.35-1.699,0.926c-13.206,20.419-18.442,39.774-19.365,43.457c-0.06,0.327-0.122,0.651-0.188,0.978
		c-0.919,6.687-0.241,12.353,1.187,17.061l3.944-0.909C373.257,286.33,372.616,281.064,373.515,274.796"/>
	<path style="fill:#1AA94B;" d="M382.836,276.58c0.651-2.585,2.892-10.704,7.699-21.183c1.907,4.235,3.299,7.98,4.083,10.972
		c1.825,7.015,3.378,13.583,2.37,16.909c-0.172,0.579-0.545,1.415-1.329,2.529l5.111-1.177c0.017-0.06,0.066-0.126,0.086-0.182
		c1.312-4.344-0.208-10.932-2.334-19.097c-1.088-4.182-3.16-9.418-6.159-15.563c-0.337-0.691-1.041-1.131-1.812-1.134h-0.003
		c-0.767,0-1.471,0.436-1.812,1.127c-6.327,12.826-9.137,23.09-9.848,25.93c-0.017,0.076-0.03,0.149-0.04,0.221
		c-0.721,5.405-0.086,9.867,1.107,13.491l3.947-0.909C382.813,285.363,382.208,281.416,382.836,276.58"/>
	<path style="fill:#1AA94B;" d="M390.148,271.772c-1.111-0.05-2.06,0.807-2.116,1.917l-0.678,14.029l4.086-0.942l0.625-12.892
		C392.121,272.771,391.259,271.825,390.148,271.772"/>
	<path style="fill:#F1B71C;" d="M291.224,277.611c5.864-7.487,4.274-5.722,5.884-7.537c2.083,2.053,0.205,0.185,6.568,7.58
		L291.224,277.611z M307.994,277.496c-0.218-0.198-0.436-0.39-0.635-0.612l-9.028-10.112c-0.344-0.364-0.826-0.565-1.326-0.542
		c-0.499,0.017-0.969,0.245-1.286,0.631c-2.764,3.335-5.342,7.755-8.859,10.548c-0.622,0.489-0.866,1.312-0.572,2.046
		c0.297,0.734,1.048,1.177,1.831,1.084l18.631-0.007c0.8,0.023,1.507-0.486,1.735-1.243
		C308.685,278.64,308.483,277.942,307.994,277.496"/>
	<path style="fill:#F1B71C;" d="M276.424,98.505l-6.079-0.721c-2.083,1.223-4.086,2.565-5.97,4.083v4.674
		C267.961,103.252,271.998,100.505,276.424,98.505"/>
	<path style="fill:#F1B71C;" d="M264.376,115.245v6.053c6.304-10.334,17.388-16.952,29.596-17.365
		c0.284-0.01,0.724-0.016,1.207-0.016c3.858,0,7.626,0.698,11.216,1.881l-3.041-4.092l0.003-0.01l-0.225-0.02l-9.887-1.174
		C281.857,101.061,271.404,106.535,264.376,115.245"/>
	<path style="fill:#F1B71C;" d="M294.16,109.911c-10.856,0.367-20.72,6.578-25.741,16.215l-4.043,7.758v7.567l7.144-13.709
		c4.436-8.519,13.16-14.013,22.77-14.337c0.228-0.01,0.529-0.013,0.893-0.013c9.233,0,17.957,4.896,22.77,12.777l13.735,22.502
		c0.423,0.691,1.263,1.002,2.033,0.75l2.324-0.757v-2.949l-0.436-0.588l-1.656,0.542l-9.497-15.557l-9.388-12.644
		c-5.448-4.764-12.505-7.573-19.884-7.573C294.765,109.894,294.424,109.901,294.16,109.911"/>
	<path style="fill:#F1B71C;" d="M312.847,129.284c-3.735-6.115-10.502-9.914-17.666-9.914c-0.241,0-0.486,0.003-0.701,0.013
		c-7.448,0.248-14.218,4.512-17.659,11.124l-12.446,23.884v7.312c0.076-0.093,0.202-0.132,0.261-0.241l15.286-29.341
		c2.863-5.494,8.486-9.038,14.684-9.246c0.182-0.007,0.377-0.01,0.575-0.01c5.954,0,11.577,3.16,14.681,8.241L327.504,160
		c0.417,0.694,1.259,1.002,2.033,0.754l6.506-2.122v-3.679l-6.278,2.05L312.847,129.284z"/>
	<path style="fill:#F1B71C;" d="M304.758,134.219c-2.023-3.316-5.696-5.375-9.577-5.375c-0.132,0-0.258,0.003-0.383,0.007
		c-4.036,0.136-7.706,2.446-9.573,6.033l-18.109,34.753l-2.74-0.691v3.607l3.223,0.81c0.787,0.198,1.603-0.169,1.98-0.886
		l18.747-35.979c1.286-2.466,3.811-4.059,6.595-4.152c2.76-0.099,5.415,1.339,6.853,3.699l21.543,35.288
		c0.423,0.691,1.263,1.002,2.033,0.754l10.694-3.487v-3.679l-10.463,3.411L304.758,134.219z"/>
	<path style="fill:#F1B71C;" d="M296.669,139.158c-0.327-0.539-0.922-0.853-1.55-0.833c-0.631,0.02-1.2,0.377-1.491,0.935
		l-21.57,41.397l-7.682-1.937v3.603l8.168,2.059c0.783,0.198,1.603-0.172,1.977-0.889l20.776-39.873l23.834,39.044
		c0.423,0.691,1.263,1.002,2.036,0.754l14.876-4.853v-3.679l-14.648,4.777L296.669,139.158z"/>
	<path style="fill:#F1B71C;" d="M320.764,189.288c-2.691,0-5.233-1.425-6.635-3.722l-16.803-27.527
		c-0.331-0.542-0.929-0.863-1.56-0.843c-0.635,0.023-1.207,0.383-1.501,0.945l-14.538,27.903c-1.342,2.582-3.987,4.182-6.889,4.182
		c-0.641,0-1.283-0.079-1.901-0.235l-6.562-1.653v3.626l5.699,1.435c0.902,0.228,1.835,0.344,2.764,0.344
		c4.221,0,8.056-2.327,10.006-6.073l13.1-25.143l15.183,24.869c2.036,3.335,5.729,5.408,9.636,5.408c1.19,0,2.367-0.188,3.501-0.559
		l11.778-3.841v-3.696l-12.869,4.195C322.393,189.159,321.583,189.288,320.764,189.288"/>
	<path style="fill:#F1B71C;" d="M294.051,324.195c-1.55,0-3.064,0.314-4.496,0.932l-14.003,6.079l6.872,0.85l8.532-3.702
		c0.985-0.426,2.026-0.645,3.094-0.645c1.402,0,2.754,0.39,3.94,1.088l1.861-2.962C298.111,324.786,296.121,324.195,294.051,324.195
		"/>
	<path style="fill:#F1B71C;" d="M331.625,239.056c1.325,0.998,2.83,1.653,4.416,1.99v-3.62c-0.82-0.261-1.597-0.648-2.301-1.177
		c-2.595-1.957-3.706-5.355-2.764-8.466l5.064-16.704v-12.125l-8.426,27.807C326.243,231.278,327.857,236.217,331.625,239.056"/>
	<path style="fill:#F1B71C;" d="M285.736,316.689l-12.872,5.587c-1.712-4.056-4.684-7.421-8.489-9.709v4.268
		c2.707,2.139,4.744,5.002,5.798,8.334c0.155,0.473,0.496,0.863,0.949,1.071c0.235,0.106,0.483,0.159,0.731,0.159
		c0.241,0,0.479-0.05,0.704-0.145l14.581-6.33c2.198-0.952,4.519-1.435,6.906-1.435l10.218,0.337l2.169-3.454l-12.386-0.407
		C291.167,314.964,288.374,315.542,285.736,316.689"/>
	<path style="fill:#F1B71C;" d="M327.356,197.607l-1.16,0.377c-1.739,0.569-3.547,0.856-5.375,0.856
		c-6.003,0-11.676-3.183-14.806-8.307l-8.033-13.157c-0.331-0.545-0.929-0.866-1.564-0.843c-0.635,0.02-1.207,0.38-1.501,0.945
		l-6.76,12.972c-2.998,5.755-8.892,9.332-15.381,9.332c-1.431,0-2.856-0.179-4.238-0.526l-4.162-1.051v10.555l5.14,20.052
		c1.613,6.291-0.417,12.796-5.14,17.094v4.463c0.231-0.155,0.483-0.271,0.707-0.44c6.892-5.074,9.973-13.705,7.848-21.989
		l-6.562-25.596l1.306,0.327c1.663,0.42,3.382,0.635,5.101,0.635c7.808,0,14.899-4.304,18.509-11.229l5.316-10.205l6.406,10.496
		c3.765,6.165,10.591,9.996,17.814,9.996c1.501,0,2.992-0.162,4.453-0.479l-6.73,22.195c-2.529,8.347,0.45,17.477,7.415,22.723
		c2.935,2.212,6.446,3.557,10.086,4v-3.527c-2.876-0.42-5.639-1.534-7.967-3.286c-5.785-4.36-8.264-11.95-6.162-18.885l7.673-25.312
		c0.192-0.625,0.017-1.309-0.453-1.769C328.665,197.564,327.98,197.402,327.356,197.607"/>
	<path style="fill:#F1B71C;" d="M268.606,253.865c-1.336,0.985-2.764,1.798-4.231,2.512v3.815c2.208-0.926,4.35-2.033,6.324-3.484
		c10.059-7.408,14.558-20.013,11.458-32.112l-3.418-13.319c7.401-1.471,13.937-5.613,18.426-11.666
		c3.947,4.846,9.18,8.545,15.219,10.267l-2.969,10.456c-3.692,12.181,0.655,25.513,10.823,33.179
		c4.572,3.441,10.112,5.438,15.805,5.924v-3.53c-4.932-0.476-9.715-2.231-13.679-5.216c-8.991-6.773-12.833-18.561-9.57-29.335
		l3.507-12.228c0.142-0.469,0.083-0.982-0.169-1.405c-0.248-0.426-0.664-0.727-1.147-0.83c-6.734-1.464-12.575-5.649-16.429-11.312
		c-0.327-0.483-0.873-0.774-1.458-0.774c-0.013,0-0.023,0.003-0.036,0.003c-0.598,0.01-1.147,0.324-1.464,0.833
		c-4.258,6.856-11.282,11.398-19.275,12.459c-0.503,0.066-0.949,0.344-1.23,0.76c-0.281,0.42-0.373,0.939-0.248,1.428l3.894,15.18
		C281.482,236.173,277.502,247.316,268.606,253.865"/>
	<path style="fill:#F1B71C;" d="M266.698,306.082c3.045,1.702,5.692,3.931,7.861,6.628c0.499,0.615,1.349,0.826,2.079,0.509
		l6.671-2.892c3.408-1.481,7.015-2.228,10.724-2.228l12.486,0.41c1.349,0,2.681,0.155,4.003,0.354l2.03-3.226
		c-1.983-0.403-3.993-0.658-6.033-0.658l-12.486-0.41c-4.195,0-8.277,0.846-12.129,2.519l-5.468,2.37
		c-2.281-2.588-4.972-4.757-8.016-6.456l-4.046-2.264v4.046L266.698,306.082z"/>
	<path style="fill:#F1B71C;" d="M277.181,301.697c0.506,0.427,1.207,0.526,1.815,0.265l0.681-0.298
		c4.572-1.98,9.411-2.988,14.39-2.988l12.363,0.407c4.274,0,8.479,0.75,12.496,2.225l2.529,0.932
		c0.198,0.073,0.403,0.106,0.605,0.106c0.44,0,0.876-0.165,1.207-0.479c1.345-1.279,2.81-2.469,4.354-3.537l8.423-5.831v-4.251
		l-10.413,7.21c-1.388,0.959-2.717,2.01-3.967,3.134l-1.531-0.565c-4.407-1.62-9.018-2.44-13.702-2.44l-12.363-0.403
		c-5.355,0-10.565,1.061-15.487,3.15c-1.65-1.296-3.411-2.473-5.253-3.501l-8.952-5.005v4.006l7.246,4.049
		C273.594,298.983,275.462,300.269,277.181,301.697"/>
	<path style="fill:#F1B71C;" d="M274.507,262.078c-3.121,2.297-6.532,4.053-10.132,5.236v3.59c4.344-1.293,8.472-3.263,12.205-6.01
		c13.087-9.639,18.938-26.039,14.905-41.784l-1.448-5.448l5.778-4.307l5.124,3.187l-0.535,2.086
		c-4.806,15.851,0.681,33.067,13.91,43.037c6.261,4.717,13.91,7.375,21.728,7.805v-3.494c-7.061-0.426-13.967-2.843-19.626-7.104
		c-12.062-9.087-17.047-24.773-12.667-39.232l0.75-2.916c0.245-0.813-0.129-1.666-0.853-2.046c-0.026-0.017-0.046-0.04-0.073-0.053
		l-6.321-4.126c-0.046-0.026-0.073-0.063-0.122-0.089c-0.026-0.013-0.053-0.026-0.079-0.04l-0.053-0.033
		c-0.036-0.023-0.086-0.04-0.132-0.06c-0.777-0.383-1.567-0.645-2.245-0.106l-7.276,5.597c-0.542,0.426-0.78,1.134-0.608,1.805
		l1.362,6.406C291.779,238.337,286.441,253.292,274.507,262.078"/>
	<path style="fill:#F1B71C;" d="M319.974,287.714c-0.142,0.099-0.284,0.198-0.426,0.301c-4.294-1.217-8.73-1.831-13.203-1.831
		l-12.201-0.4c-4.734,0-9.405,0.684-13.894,2.03c-0.661-0.41-1.332-0.81-2.013-1.187l-11.206-6.268
		c5.517-1.57,10.681-4.109,15.398-7.583c5.891-4.337,10.727-11.887,14.129-18.274c3.147,5.074,7.154,11.411,11.944,15.024
		c6.988,5.263,15.378,8.545,24.052,9.484L319.974,287.714z M297.958,250.015c-0.311-0.582-0.929-0.932-1.583-0.916
		c-0.658,0.023-1.246,0.42-1.517,1.021c-3.16,7.081-8.165,15.229-14.476,19.877c-4.859,3.577-10.248,6.02-16.006,7.418v5.411
		l12.175,6.81c0.856,0.476,1.699,0.985,2.509,1.507c0.433,0.278,0.969,0.35,1.458,0.192c4.39-1.395,8.975-2.102,13.626-2.102
		l12.201,0.4c4.423,0,8.806,0.645,13.028,1.921c0.165,0.05,0.33,0.076,0.502,0.076c0.36,0,0.717-0.116,1.018-0.334
		c0.367-0.271,0.707-0.512,1.041-0.744l14.109-9.768v-5.018c-9.154-0.337-18.142-3.478-25.467-8.998
		C305.31,262.802,301.065,255.87,297.958,250.015"/>
	<path style="fill:#818385;" d="M61.048,378.009c1.785,0,3.342,1.501,3.342,3.342c0,1.785-1.497,3.339-3.342,3.339
		c-1.901,0-3.339-1.497-3.339-3.339C57.709,379.562,59.207,378.009,61.048,378.009 M52.298,378.009c1.901,0,3.339,1.441,3.339,3.342
		c0,1.841-1.438,3.339-3.339,3.339c-1.901,0-3.282-1.497-3.282-3.339C49.015,379.562,50.453,378.009,52.298,378.009 M62.949,394.765
		c0,0-2.532-1.206-6.334-1.206c-4.836,0-7.772,3.57-7.772,8.75c0,5.934,2.82,8.985,9.616,8.985h4.489V394.765z M57.709,416.302
		c-11.114,0-15.259-5.18-15.259-13.418c0-7.54,4.664-14.337,14.8-14.337c6.621,0,11.861,2.017,11.861,2.017v20.73h6.737v5.008
		H57.709z"/>
	<path style="fill:#818385;" d="M89.957,421.082c1.785,0,3.339,1.497,3.339,3.342c0,1.782-1.497,3.339-3.339,3.339
		c-1.901,0-3.339-1.497-3.339-3.339C86.618,422.579,88.112,421.082,89.957,421.082 M81.204,421.082c1.845,0,3.342,1.497,3.342,3.342
		c0,1.782-1.441,3.339-3.342,3.339c-1.841,0-3.283-1.497-3.283-3.339C77.921,422.579,79.362,421.082,81.204,421.082 M74.986,416.302
		c-1.15,0-3.454-0.922-3.454-2.532c0-1.497,2.304-2.476,3.454-2.476h7.659v-22.056h6.274v27.064H74.986z"/>
	<path style="fill:#818385;" d="M97.097,411.292h17.851c-0.288-9.672-4.433-15.259-14.109-17.966l1.557-5.296
		c12.552,3.57,18.77,10.595,18.77,24.988v3.286H97.097V411.292z"/>
	<path style="fill:#818385;" d="M148.92,394.767c0,0-2.532-1.21-6.334-1.21c-4.836,0-7.772,3.57-7.772,8.753
		c0,5.93,2.82,8.982,9.616,8.982h4.489V394.767z M128.825,430.006l0.463-5.24c0,0,4.661,1.094,9.094,1.094
		c6.106,0,10.539-2.304,10.539-8.406v-1.15h-5.24c-11.114,0-15.259-5.183-15.259-13.418c0-7.54,4.664-14.34,14.8-14.34
		c6.621,0,11.861,2.016,11.861,2.016v20.73h6.737v5.011h-6.737v0.691c0,7.253-4.78,13.877-17.332,13.877
		C133.374,430.872,128.825,430.006,128.825,430.006"/>
	<path style="fill:#818385;" d="M182.206,406.052c2.879-2.245,4.377-4.949,4.377-7.659c0-2.935-1.845-5.296-5.99-5.296
		c-3.57,0-7.715,2.476-10.076,4.089C175.066,398.971,178.464,402.829,182.206,406.052 M160.957,416.303
		c-1.15,0-3.454-0.922-3.454-2.535c0-1.494,2.304-2.476,3.454-2.476h1.441c5.987,0,10.939-0.919,14.796-2.476
		c-3.914-3.626-7.6-7.6-13.071-9.269l0.519-4.492c4.549-3.279,10.942-6.678,16.7-6.678c8.175,0,11.514,4.373,11.514,9.213
		c0,3.97-2.245,8.175-6.506,11.573c2.188,1.266,4.608,2.129,7.487,2.129h2.82v5.011h-3.626c-4.955,0-8.582-1.669-11.689-3.973
		c-4.955,2.42-11.401,3.973-19.176,3.973H160.957z"/>
	<path style="fill:#818385;" d="M222.111,411.984c-1.035,2.476-3.917,4.78-8.754,4.78c-3.858,0-6.737-1.901-7.544-4.78
		c-1.15,2.764-3.454,4.317-7.715,4.317h-2.304c-1.15,0-3.454-0.922-3.454-2.532c0-1.497,2.304-2.476,3.454-2.476h2.304
		c3.973,0,5.643-1.669,5.643-7.544v-11.058h6.334v10.598c0,5.587,0.347,8.466,4.433,8.466c3.286,0,5.415-1.904,5.415-8.41v-12.955
		h6.102v14.624c0,5.355,1.96,6.277,7.775,6.277h1.729c0.288-2.416,0.403-5.53,0.403-7.544c0-5.99-0.75-11.345-1.785-15.662
		l6.159-0.922c1.154,4.436,1.96,10.135,1.96,16.125c0,2.473-0.116,5.296-0.347,8.003h6.449v5.008h-14.856
		C226.835,416.302,223.721,415.379,222.111,411.984"/>
	<path style="fill:#818385;" d="M247.506,416.302c-1.15,0-3.454-0.922-3.454-2.532c0-1.497,2.304-2.479,3.454-2.479h7.659v-35.586
		h6.277v40.597H247.506z"/>
	<path style="fill:#818385;" d="M272.728,380.544c-1.326-0.228-2.823-0.459-4.321-0.575v-3.858
		c3.342-0.347,6.737-0.575,10.654-0.463v40.653h-6.334V380.544z"/>
	<path style="fill:#818385;" d="M322.537,402.482c0-6.334-2.592-8.925-6.968-8.925c-4.777,0-7.775,3.573-7.775,8.75
		c0,6.049,2.879,8.985,9.676,8.985h5.068V402.482z M317.182,416.304c-5.527,0-7.887-1.557-9.501-3.57v3.742
		c0.172,8.178-3.454,14.972-13.821,14.972l0.231-5.008c7.137,0,7.428-5.934,7.428-10.135v-12.38c0-9.157,5.124-15.375,14.628-15.375
		c8.578,0,12.608,4.892,12.608,13.071v9.672h4.952v5.011H317.182z"/>
	<path style="fill:#818385;" d="M332.844,416.302c-1.154,0-3.454-0.922-3.454-2.532c0-1.497,2.301-2.479,3.454-2.479h2.304
		c3.973,0,5.643-1.669,5.643-7.54v-11.058h6.334v10.595c0,5.587,0.344,8.466,4.433,8.466c3.283,0,5.415-1.901,5.415-8.406v-12.955
		h6.102v14.624c0,5.355,1.957,6.274,7.772,6.274h1.729c0.288-2.416,0.403-5.527,0.403-7.54c0-5.99-0.747-11.345-1.785-15.662
		l6.162-0.922c1.15,4.433,1.96,10.135,1.96,16.122c0,4.03-0.347,9.041-0.866,13.015h-7.891c-6.681,0-9.788-0.922-11.401-4.317
		c-1.035,2.476-3.914,4.777-8.75,4.777c-3.858,0-6.74-1.901-7.544-4.777c-1.154,2.764-3.458,4.317-7.715,4.317H332.844z"/>
	<path style="fill:#818385;" d="M389.968,380.544c-1.322-0.228-2.823-0.459-4.321-0.575v-3.858c3.342-0.347,6.74-0.575,10.654-0.463
		v40.653h-6.334V380.544z"/>
	<path style="fill:#818385;" d="M425.381,394.767c0,0-2.535-1.21-6.334-1.21c-4.836,0-7.775,3.57-7.775,8.753
		c0,5.93,2.823,8.982,9.62,8.982h4.489V394.767z M405.286,430.006l0.459-5.24c0,0,4.664,1.094,9.097,1.094
		c6.106,0,10.539-2.304,10.539-8.406v-1.15h-5.24c-11.114,0-15.259-5.183-15.259-13.418c0-7.54,4.664-14.34,14.796-14.34
		c6.625,0,11.864,2.016,11.864,2.016v20.73h6.737v5.011h-6.737v0.691c0,7.253-4.78,13.877-17.332,13.877
		C409.834,430.872,405.286,430.006,405.286,430.006"/>
	<path style="fill:#818385;" d="M463.388,402.482c0-6.334-2.592-8.925-6.968-8.925c-4.896,0-7.831,3.573-7.831,8.75
		c0,6.049,2.879,8.985,9.676,8.985h5.124V402.482z M437.419,416.304c-1.154,0-3.458-0.922-3.458-2.535
		c0-1.497,2.304-2.476,3.458-2.476h5.352c2.016,0,3.283,0.347,3.283,0.347c-2.473-1.669-3.798-4.549-3.798-9.041
		c0-7.428,4.952-14.049,14.684-14.049c8.578,0,12.611,4.892,12.611,13.071v14.684H437.419z"/>
	<path style="fill:#818385;" d="M97.472,447.255c-2.073-0.691-4.492-1.094-6.737-1.094c-4.836,0-7.197,2.016-7.197,5.24
		c0,7.891,17.332,5.24,17.332,17.851c0,6.797-5.183,11.748-14.628,11.748c-3.167,0-6.334-0.403-8.866-1.035l0.747-6.049
		c2.535,0.979,5.587,1.669,8.522,1.669c4.377,0,7.603-1.669,7.603-5.699c0-8.175-17.219-5.299-17.219-17.851
		c0-6.509,5.124-11.054,14.109-11.054c2.188,0,4.836,0.288,6.968,0.747L97.472,447.255z"/>
	<path style="fill:#818385;" d="M122.694,467.353c-8.522,0-10.886,2.245-10.886,4.952c0,2.188,1.497,3.858,3.917,3.858
		c4.145,0,6.968-4.089,6.968-7.947V467.353z M133.865,479.964c-3.223,0.403-7.372,0.631-10.77,0.516c0-1.901,0.06-3.798,0.291-5.352
		l-0.06-0.059c-1.382,3.398-4.952,5.871-9.444,5.871c-4.949,0-8.059-3.283-8.059-7.884c0-6.449,6.334-9.907,16.872-9.907v-1.438
		c0-3.802-1.441-5.702-5.643-5.702c-2.651,0-5.99,0.807-8.697,1.96l-1.035-4.78c3.167-1.094,6.965-1.96,10.423-1.96
		c8.463,0,11.114,3.742,11.114,10.023v14.393c1.378,0.231,3.339,0.459,5.008,0.575V479.964z"/>
	<path style="fill:#818385;" d="M169.394,479.963c-3.223,0.403-7.428,0.635-10.826,0.519c0-1.557,0.116-3.973,0.403-5.702h-0.116
		c-1.669,3.686-5.124,6.162-9.904,6.162c-6.565,0-8.578-4.086-8.578-9.097v-15.262c-1.382-0.228-3.342-0.456-5.011-0.572v-3.745
		c3.339-0.403,7.6-0.631,11.173-0.519v18.429c0,3.567,0.978,5.643,4.261,5.643c4.258,0,7.484-4.492,7.484-10.251v-13.762h6.106
		v23.837c1.382,0.231,3.339,0.463,5.008,0.579V479.963z"/>
	<path style="fill:#818385;" d="M191.794,456.757c-1.554-0.344-3.051-0.519-4.549-0.519c-4.896,0-8.234,2.995-8.234,10.654
		c0,5.815,1.785,9.041,5.702,9.041c4.605,0,7.081-5.355,7.081-10.367V456.757z M202.907,479.963
		c-3.167,0.403-7.428,0.635-10.826,0.519c0-1.613,0.116-3.802,0.403-5.415h-0.116c-1.554,3.514-4.949,5.93-9.325,5.93
		c-7.028,0-10.482-5.18-10.482-13.415c0-9.904,5.702-16.241,14.972-16.241c1.382,0,2.707,0.059,4.261,0.291v-8.463
		c-1.382-0.235-3.339-0.463-5.008-0.578v-3.742c3.223-0.403,7.368-0.635,11.114-0.519v37.311c1.378,0.231,3.339,0.463,5.008,0.579
		V479.963z"/>
	<path style="fill:#818385;" d="M212.927,446.738c-2.129,0-3.914-1.669-3.914-3.798c0-2.132,1.785-3.917,3.914-3.917
		c2.188,0,3.974,1.729,3.974,3.917C216.9,445.012,215.115,446.738,212.927,446.738 M209.875,480.423v-23.837
		c-1.382-0.231-3.339-0.463-5.012-0.578v-3.739c3.226-0.407,7.372-0.635,11.114-0.519v28.674H209.875z"/>
	<path style="fill:#818385;" d="M256.114,447.255c-2.073-0.691-4.492-1.094-6.737-1.094c-4.836,0-7.2,2.016-7.2,5.24
		c0,7.891,17.335,5.24,17.335,17.851c0,6.797-5.183,11.748-14.628,11.748c-3.167,0-6.334-0.403-8.866-1.035l0.747-6.049
		c2.532,0.979,5.587,1.669,8.522,1.669c4.377,0,7.603-1.669,7.603-5.699c0-8.175-17.219-5.299-17.219-17.851
		c0-6.509,5.124-11.054,14.109-11.054c2.188,0,4.836,0.288,6.968,0.747L256.114,447.255z"/>
	<path style="fill:#818385;" d="M282.777,462.802c0.116-4.545-2.132-6.968-5.759-6.968c-3.454,0-5.99,2.535-6.449,6.968H282.777z
		 M288.016,479.215c-3.167,1.094-6.681,1.729-10.02,1.729c-8.925,0-13.821-4.552-13.821-14.628c0-8.578,4.896-15.028,13.186-15.028
		c8.178,0,11.577,5.355,11.577,11.917c0,1.96-0.175,3.802-0.175,3.802h-18.31c-0.06,6.102,2.592,9.101,8.291,9.101
		c2.823,0,5.643-0.519,8.578-1.501L288.016,479.215z"/>
	<path style="fill:#818385;" d="M310.702,467.353c-8.519,0-10.882,2.245-10.882,4.952c0,2.188,1.497,3.858,3.917,3.858
		c4.145,0,6.965-4.089,6.965-7.947V467.353z M321.875,479.964c-3.226,0.403-7.372,0.631-10.77,0.516c0-1.901,0.06-3.798,0.291-5.352
		l-0.06-0.059c-1.382,3.398-4.952,5.871-9.444,5.871c-4.952,0-8.059-3.283-8.059-7.884c0-6.449,6.334-9.907,16.869-9.907v-1.438
		c0-3.802-1.438-5.702-5.64-5.702c-2.651,0-5.99,0.807-8.697,1.96l-1.035-4.78c3.167-1.094,6.965-1.96,10.42-1.96
		c8.466,0,11.114,3.742,11.114,10.023v14.393c1.382,0.231,3.342,0.459,5.012,0.575V479.964z"/>
	<path style="fill:#818385;" d="M342.029,456.756c-1.613-0.519-3.57-0.863-5.411-0.863c-3.282,0-4.952,1.322-4.952,3.398
		c0,5.583,12.783,2.879,12.783,12.667c0,5.011-4.089,8.985-12.096,8.985c-2.36,0-4.833-0.291-6.678-0.75l0.403-5.24
		c1.841,0.688,4.489,1.15,6.677,1.15c3.398,0,5.299-1.322,5.299-3.57c0-5.699-12.667-2.879-12.667-12.724
		c0-4.724,3.798-8.582,11.633-8.582c1.785,0,3.742,0.231,5.411,0.516L342.029,456.756z"/>
	<path style="fill:#818385;" d="M362.876,456.41c-4.492,0-7.428,3.286-7.428,9.676c0,6.274,2.704,9.672,7.312,9.672
		c4.205,0,7.312-2.995,7.312-9.613C370.072,459.868,367.365,456.41,362.876,456.41 M362.241,480.941
		c-7.947,0-13.13-4.492-13.13-14.281c0-8.694,5.011-15.375,14.165-15.375c8.006,0,13.186,4.492,13.186,14.281
		C376.462,474.261,371.454,480.941,362.241,480.941"/>
	<path style="fill:#818385;" d="M402.665,480.423v-18.366c0-3.573-0.979-5.646-4.261-5.646c-4.321,0-7.544,4.496-7.544,10.251
		v13.762h-6.102v-23.837c-1.382-0.231-3.342-0.463-5.011-0.578v-3.739c3.223-0.407,7.372-0.638,10.882-0.519
		c0,1.61-0.112,4.03-0.46,5.699h0.116c1.669-3.686,5.124-6.162,9.904-6.162c6.506,0,8.578,4.089,8.578,9.101v20.036H402.665z"/>
	<path style="fill:#818385;" d="M432.55,456.756c-1.61-0.519-3.57-0.863-5.411-0.863c-3.283,0-4.952,1.322-4.952,3.398
		c0,5.583,12.783,2.879,12.783,12.667c0,5.011-4.089,8.985-12.092,8.985c-2.36,0-4.836-0.291-6.681-0.75l0.403-5.24
		c1.845,0.688,4.492,1.15,6.681,1.15c3.395,0,5.296-1.322,5.296-3.57c0-5.699-12.667-2.879-12.667-12.724
		c0-4.724,3.798-8.582,11.633-8.582c1.785,0,3.742,0.231,5.411,0.516L432.55,456.756z"/>
</g>
</svg>
