<svg xmlns="http://www.w3.org/2000/svg" xmlns:xlink="http://www.w3.org/1999/xlink" version="1.1" x="0px" y="0px" viewBox="0 0 100 125" style="enable-background:new 0 0 100 100;" xml:space="preserve"><g><g><path d="M1,97.5c-0.6,0-1-0.5-1-1v-39c0-0.6,0.5-1,1-1s1,0.5,1,1v39C2.1,97.1,1.6,97.5,1,97.5z"/></g><g><path d="M21.8,56c-0.6,0-1-0.5-1-1v-5.7H5.3v5.7c0,0.6-0.5,1-1,1s-1-0.5-1-1v-7.8h19.6v7.8    C22.8,55.5,22.3,56,21.8,56z"/></g><g><path d="M18.9,49.2c-0.6,0-1-0.5-1-1v-4.6c0-0.8-0.7-1.5-1.5-1.5H9.7c-0.8,0-1.5,0.7-1.5,1.5v4.6c0,0.6-0.5,1-1,1    c-0.6,0-1-0.5-1-1v-4.6c0-2,1.6-3.6,3.6-3.6h6.6c2,0,3.6,1.6,3.6,3.6v4.6C19.9,48.8,19.4,49.2,18.9,49.2z"/></g><g><path d="M25,81.9c-0.6,0-1-0.5-1-1V57c0-0.6-0.5-1.1-1.1-1.1h-3.7v10.6c0,0.6-0.5,1-1,1s-1-0.5-1-1V53.9h5.8    c1.7,0,3.1,1.4,3.1,3.1v23.8C26,81.4,25.5,81.9,25,81.9z"/></g><g><path d="M1,97.5c-0.6,0-1-0.5-1-1V57c0-1.7,1.4-3.1,3.1-3.1H9v12.7c0,0.6-0.5,1-1,1s-1-0.5-1-1V56H3.1    c-0.6,0-1.1,0.5-1.1,1.1v39.5C2.1,97.1,1.6,97.5,1,97.5z"/></g><g><path d="M94.2,40.5c-0.6,0-1-0.5-1-1v-4.9c0-0.4-0.3-0.8-0.8-0.8H81.6c-0.4,0-0.8,0.3-0.8,0.8v4.9    c0,0.6-0.5,1-1,1c-0.6,0-1-0.5-1-1v-4.9c0-1.6,1.3-2.8,2.8-2.8h10.9c1.6,0,2.8,1.3,2.8,2.8v4.9C95.3,40,94.8,40.5,94.2,40.5z"/></g><g><path d="M79.8,62.3H65.9c-0.6,0-1-0.5-1-1c0-0.6,0.5-1,1-1h13.8c0.6,0,1,0.5,1,1C80.8,61.9,80.3,62.3,79.8,62.3z"/></g><g><rect x="40.1" y="58.2" width="2.1" height="1.6"/></g><g><rect x="40.1" y="63.8" width="2.1" height="1.6"/></g><g><rect x="40.1" y="69.5" width="2.1" height="1.6"/></g><g><rect x="40.1" y="52.5" width="2.1" height="1.6"/></g><g><rect x="49.1" y="58.2" width="2.1" height="1.6"/></g><g><rect x="49.1" y="63.8" width="2.1" height="1.6"/></g><g><rect x="49.1" y="69.5" width="2.1" height="1.6"/></g><g><rect x="49.1" y="52.5" width="2.1" height="1.6"/></g><g><rect x="58.1" y="58.2" width="2.1" height="1.6"/></g><g><rect x="58.1" y="63.8" width="2.1" height="1.6"/></g><g><rect x="58.1" y="69.5" width="2.1" height="1.6"/></g><g><rect x="58.1" y="52.5" width="2.1" height="1.6"/></g><g><rect x="40.1" y="80.1" width="2.1" height="1.6"/></g><g><rect x="40.1" y="85.7" width="2.1" height="1.6"/></g><g><rect x="40.1" y="91.4" width="2.1" height="1.6"/></g><g><rect x="40.1" y="74.4" width="2.1" height="1.6"/></g><g><rect x="86" y="58.2" width="2.1" height="1.6"/></g><g><rect x="86" y="63.8" width="2.1" height="1.6"/></g><g><rect x="86" y="69.5" width="2.1" height="1.6"/></g><g><rect x="86" y="52.5" width="2.1" height="1.6"/></g><g><rect x="86" y="80.1" width="2.1" height="1.6"/></g><g><rect x="86" y="85.7" width="2.1" height="1.6"/></g><g><rect x="86" y="91.4" width="2.1" height="1.6"/></g><g><rect x="86" y="74.4" width="2.1" height="1.6"/></g><g><rect x="71.8" y="75.3" width="2.1" height="1.6"/></g><g><rect x="71.8" y="80.9" width="2.1" height="1.6"/></g><g><rect x="71.8" y="86.6" width="2.1" height="1.6"/></g><g><rect x="71.8" y="69.6" width="2.1" height="1.6"/></g><g><rect x="12" y="73.4" width="2.1" height="1.6"/></g><g><rect x="12" y="79" width="2.1" height="1.6"/></g><g><rect x="12" y="84.7" width="2.1" height="1.6"/></g><g><rect x="12" y="67.7" width="2.1" height="1.6"/></g><g><rect x="24.5" y="91.1" width="2.1" height="1.6"/></g><g><rect x="24.5" y="85.5" width="2.1" height="1.6"/></g><g><rect x="49.1" y="80.1" width="2.1" height="1.6"/></g><g><rect x="49.1" y="85.7" width="2.1" height="1.6"/></g><g><rect x="49.1" y="91.4" width="2.1" height="1.6"/></g><g><rect x="49.1" y="74.4" width="2.1" height="1.6"/></g><g><rect x="58.1" y="80.1" width="2.1" height="1.6"/></g><g><rect x="58.1" y="85.7" width="2.1" height="1.6"/></g><g><rect x="58.1" y="91.4" width="2.1" height="1.6"/></g><g><rect x="58.1" y="74.4" width="2.1" height="1.6"/></g><g><path d="M65.9,97.5c-0.6,0-1-0.5-1-1V7.6l-3.2-1.1c-7.4-2.6-15.7-2.6-23.1,0l-3.2,1.1v88.8c0,0.6-0.5,1-1,1    c-0.6,0-1-0.5-1-1V6.2l4.6-1.6c7.9-2.8,16.6-2.8,24.5,0L67,6.2v90.3C67,97,66.5,97.5,65.9,97.5z"/></g><g><path d="M50.2,38.4c-1.6,0-3.1-0.8-4.1-2.1c-2.3-3.3-6.2-11.1-7.1-25.5l0-0.8l0.7-0.3c6.7-2.4,14.1-2.4,20.9,0    l0.7,0.3l0,0.8c-0.9,14.4-4.8,22.2-7.1,25.5C53.3,37.6,51.8,38.4,50.2,38.4z M41.2,11.4c0.9,13.4,4.5,20.6,6.7,23.6    c0.5,0.8,1.4,1.2,2.3,1.2c0.9,0,1.8-0.5,2.3-1.2c2.1-3.1,5.7-10.2,6.7-23.6C53.3,9.5,47,9.5,41.2,11.4z"/></g><g><path d="M13,42.1c-0.6,0-1-0.5-1-1v-9.7c0-0.6,0.5-1,1-1c0.6,0,1,0.5,1,1V41C14,41.6,13.6,42.1,13,42.1z"/></g><g><path d="M79.8,97.5c-0.6,0-1-0.5-1-1V61.3c0-0.6,0.5-1,1-1c0.6,0,1,0.5,1,1v35.2C80.8,97,80.3,97.5,79.8,97.5z"/></g><g><path d="M18.1,97.5c-0.6,0-1-0.5-1-1V79.8h17.3c0.6,0,1,0.5,1,1c0,0.6-0.5,1-1,1H19.1v14.6    C19.1,97.1,18.7,97.5,18.1,97.5z"/></g><g><path d="M99,97.5c-0.6,0-1-0.5-1-1v-55c0-0.6-0.5-1.1-1.1-1.1H77.1c-0.6,0-1.1,0.5-1.1,1.1v15.1c0,0.6-0.5,1-1,1    c-0.6,0-1-0.5-1-1V41.5c0-1.7,1.4-3.1,3.1-3.1h19.7c1.7,0,3.1,1.4,3.1,3.1v55C100,97.1,99.5,97.5,99,97.5z"/></g></g></svg>