<svg xmlns="http://www.w3.org/2000/svg" data-name="Layer 1" viewBox="0 0 64 60" x="0px" y="0px"><g><path d="M30.74,49H29V31.5062l.4561.192a1,1,0,1,0,.7753-1.8437L29,29.3359v-2.83l8.6621,3.6463a1,1,0,1,0,.7754-1.8437L29,24.3359v-3.83l17,7.1579V28.3a1,1,0,1,0,2,0V21.32a5.9919,5.9919,0,0,0-3.6719-5.5322L30.334,9.9a5.9576,5.9576,0,0,0-4.6621-.002l-14.001,5.8907A5.99,5.99,0,0,0,8,21.32V45a6.0066,6.0066,0,0,0,6,6H30.74a1,1,0,0,0,0-2ZM10,27.6641l17-7.1579v3.83L10,31.4938ZM43.5518,17.6309A3.9975,3.9975,0,0,1,46,21.32v4.1735L29,18.3359V11.57a3.9012,3.9012,0,0,1,.5527.1723Zm-31.1045.0009L26.4531,11.74A3.8552,3.8552,0,0,1,27,11.57v6.7662L10,25.4938V21.32A3.9959,3.9959,0,0,1,12.4473,17.6318ZM10,45V38.6641l1.2314-.5186a1,1,0,1,0-.7753-1.8437L10,36.4938v-2.83l17-7.1579v2.83l-1.2314.5186a1,1,0,1,0,.7753,1.8437L27,31.5062V49H14A4.0039,4.0039,0,0,1,10,45Z"/><path d="M22.7051,31.1436l-3.0625,1.29a1,1,0,0,0,.7773,1.8437l3.0625-1.29a1,1,0,0,0-.7773-1.8437Z"/><path d="M16.58,33.7227l-3.0625,1.29a1,1,0,0,0,.7773,1.8437l3.0625-1.29a1,1,0,1,0-.7773-1.8437Z"/><path d="M44,31A12,12,0,1,0,56,43,12.0131,12.0131,0,0,0,44,31Zm0,22A10,10,0,1,1,54,43,10.0117,10.0117,0,0,1,44,53Z"/><path d="M48.6406,37.0664,41.418,39.8438a1.0012,1.0012,0,0,0-.5742.5742l-2.7774,7.2226a1.0009,1.0009,0,0,0,1.293,1.293l7.2226-2.7773a1.0021,1.0021,0,0,0,.5743-.5743l2.7773-7.2226a1.0008,1.0008,0,0,0-1.293-1.293Zm-6.4824,5.5059,2.27,2.27-3.6865,1.417Zm3.6836.8554-2.27-2.27,3.6865-1.417Z"/></g></svg>